<mxfile host="app.diagrams.net" agent="Mozilla/5.0 (Windows NT 10.0; Win64; x64) AppleWebKit/537.36 (KHTML, like Gecko) Chrome/129.0.0.0 Safari/537.36" version="24.7.17">
  <diagram id="R2lEEEUBdFMjLlhIrx00" name="Page-1">
    <mxGraphModel grid="0" page="0" gridSize="10" guides="0" tooltips="1" connect="1" arrows="1" fold="1" pageScale="1" pageWidth="850" pageHeight="1100" math="0" shadow="0" extFonts="Permanent Marker^https://fonts.googleapis.com/css?family=Permanent+Marker">
      <root>
        <mxCell id="0" />
        <mxCell id="1" parent="0" />
        <mxCell id="lv8XwaAhsmV5lhqvwmhc-1" value="Player" style="shape=umlActor;verticalLabelPosition=bottom;verticalAlign=top;html=1;outlineConnect=0;fontSize=23;strokeWidth=3;fillColor=#fff2cc;strokeColor=#d6b656;" vertex="1" parent="1">
          <mxGeometry x="-26" y="120" width="183" height="261" as="geometry" />
        </mxCell>
        <mxCell id="lv8XwaAhsmV5lhqvwmhc-3" value="Join Game" style="ellipse;whiteSpace=wrap;html=1;fontSize=23;strokeWidth=3;fillColor=#fff2cc;strokeColor=#d6b656;" vertex="1" parent="1">
          <mxGeometry x="660" y="70" width="200" height="80" as="geometry" />
        </mxCell>
        <mxCell id="lv8XwaAhsmV5lhqvwmhc-5" value="Manage Hand" style="ellipse;whiteSpace=wrap;html=1;fontSize=23;strokeWidth=3;fillColor=#fff2cc;strokeColor=#d6b656;" vertex="1" parent="1">
          <mxGeometry x="655" y="320" width="205" height="80" as="geometry" />
        </mxCell>
        <mxCell id="lv8XwaAhsmV5lhqvwmhc-6" value="Withdraw Funds" style="ellipse;whiteSpace=wrap;html=1;fontSize=23;strokeWidth=3;fillColor=#fff2cc;strokeColor=#d6b656;" vertex="1" parent="1">
          <mxGeometry x="644" y="564" width="205" height="80" as="geometry" />
        </mxCell>
        <mxCell id="lv8XwaAhsmV5lhqvwmhc-7" value="Leave the game" style="ellipse;whiteSpace=wrap;html=1;fontSize=23;strokeWidth=3;fillColor=#fff2cc;strokeColor=#d6b656;" vertex="1" parent="1">
          <mxGeometry x="648" y="692" width="205" height="80" as="geometry" />
        </mxCell>
        <mxCell id="lv8XwaAhsmV5lhqvwmhc-8" value="Dealer" style="shape=umlActor;verticalLabelPosition=bottom;verticalAlign=top;html=1;outlineConnect=0;fontSize=23;strokeWidth=3;fillColor=#fff2cc;strokeColor=#d6b656;" vertex="1" parent="1">
          <mxGeometry x="1359" y="16" width="160" height="369" as="geometry" />
        </mxCell>
        <mxCell id="lv8XwaAhsmV5lhqvwmhc-9" value="Add Funds" style="ellipse;whiteSpace=wrap;html=1;fontSize=23;strokeWidth=3;fillColor=#fff2cc;strokeColor=#d6b656;" vertex="1" parent="1">
          <mxGeometry x="650" y="210" width="205" height="80" as="geometry" />
        </mxCell>
        <mxCell id="wcZ-rEzvD_bDUfHbQaW4-4" value="" style="endArrow=none;html=1;rounded=0;entryX=0;entryY=0.3333333333333333;entryDx=0;entryDy=0;entryPerimeter=0;exitX=1;exitY=0.5;exitDx=0;exitDy=0;fontSize=23;strokeWidth=3;fillColor=#fff2cc;strokeColor=#d6b656;" edge="1" parent="1" source="lv8XwaAhsmV5lhqvwmhc-3" target="lv8XwaAhsmV5lhqvwmhc-8">
          <mxGeometry width="50" height="50" relative="1" as="geometry">
            <mxPoint x="1100" y="370" as="sourcePoint" />
            <mxPoint x="1150" y="320" as="targetPoint" />
          </mxGeometry>
        </mxCell>
        <mxCell id="wcZ-rEzvD_bDUfHbQaW4-5" value="" style="endArrow=none;html=1;rounded=0;exitX=0.987;exitY=0.354;exitDx=0;exitDy=0;exitPerimeter=0;entryX=0;entryY=0.3333333333333333;entryDx=0;entryDy=0;entryPerimeter=0;fontSize=23;strokeWidth=3;fillColor=#fff2cc;strokeColor=#d6b656;" edge="1" parent="1" source="lv8XwaAhsmV5lhqvwmhc-7" target="lv8XwaAhsmV5lhqvwmhc-8">
          <mxGeometry width="50" height="50" relative="1" as="geometry">
            <mxPoint x="1100" y="370" as="sourcePoint" />
            <mxPoint x="1480" y="410" as="targetPoint" />
          </mxGeometry>
        </mxCell>
        <mxCell id="wcZ-rEzvD_bDUfHbQaW4-6" value="" style="endArrow=none;html=1;rounded=0;fontSize=23;strokeWidth=3;exitX=1;exitY=0.3333333333333333;exitDx=0;exitDy=0;exitPerimeter=0;fillColor=#fff2cc;strokeColor=#d6b656;" edge="1" parent="1" target="lv8XwaAhsmV5lhqvwmhc-9" source="lv8XwaAhsmV5lhqvwmhc-1">
          <mxGeometry width="50" height="50" relative="1" as="geometry">
            <mxPoint x="240" y="440" as="sourcePoint" />
            <mxPoint x="290" y="390" as="targetPoint" />
          </mxGeometry>
        </mxCell>
        <mxCell id="wcZ-rEzvD_bDUfHbQaW4-7" value="" style="endArrow=none;html=1;rounded=0;entryX=0;entryY=0.5;entryDx=0;entryDy=0;exitX=1;exitY=0.3333333333333333;exitDx=0;exitDy=0;exitPerimeter=0;fontSize=23;strokeWidth=3;fillColor=#fff2cc;strokeColor=#d6b656;" edge="1" parent="1" source="lv8XwaAhsmV5lhqvwmhc-1" target="lv8XwaAhsmV5lhqvwmhc-3">
          <mxGeometry width="50" height="50" relative="1" as="geometry">
            <mxPoint x="230" y="412.53" as="sourcePoint" />
            <mxPoint x="668" y="249.53" as="targetPoint" />
          </mxGeometry>
        </mxCell>
        <mxCell id="wcZ-rEzvD_bDUfHbQaW4-8" value="" style="endArrow=none;html=1;rounded=0;entryX=0;entryY=0.5;entryDx=0;entryDy=0;fontSize=23;strokeWidth=3;exitX=1;exitY=0.3333333333333333;exitDx=0;exitDy=0;exitPerimeter=0;fillColor=#fff2cc;strokeColor=#d6b656;" edge="1" parent="1" target="lv8XwaAhsmV5lhqvwmhc-6" source="lv8XwaAhsmV5lhqvwmhc-1">
          <mxGeometry width="50" height="50" relative="1" as="geometry">
            <mxPoint x="240" y="440" as="sourcePoint" />
            <mxPoint x="628.0315066841192" y="467.92427552914" as="targetPoint" />
          </mxGeometry>
        </mxCell>
        <mxCell id="wcZ-rEzvD_bDUfHbQaW4-9" value="" style="endArrow=none;html=1;rounded=0;entryX=0;entryY=0.5;entryDx=0;entryDy=0;exitX=1;exitY=0.3333333333333333;exitDx=0;exitDy=0;exitPerimeter=0;fontSize=23;strokeWidth=3;fillColor=#fff2cc;strokeColor=#d6b656;" edge="1" parent="1" source="lv8XwaAhsmV5lhqvwmhc-1" target="lv8XwaAhsmV5lhqvwmhc-7">
          <mxGeometry width="50" height="50" relative="1" as="geometry">
            <mxPoint x="250" y="440" as="sourcePoint" />
            <mxPoint x="645" y="590" as="targetPoint" />
          </mxGeometry>
        </mxCell>
        <mxCell id="wcZ-rEzvD_bDUfHbQaW4-10" value="" style="endArrow=none;html=1;rounded=0;fontSize=23;strokeWidth=3;exitX=1;exitY=0.3333333333333333;exitDx=0;exitDy=0;exitPerimeter=0;fillColor=#fff2cc;strokeColor=#d6b656;" edge="1" parent="1" target="lv8XwaAhsmV5lhqvwmhc-5" source="lv8XwaAhsmV5lhqvwmhc-1">
          <mxGeometry width="50" height="50" relative="1" as="geometry">
            <mxPoint x="240" y="440" as="sourcePoint" />
            <mxPoint x="290" y="390" as="targetPoint" />
          </mxGeometry>
        </mxCell>
        <mxCell id="wcZ-rEzvD_bDUfHbQaW4-11" value="Deal cards" style="ellipse;whiteSpace=wrap;html=1;fontSize=23;strokeWidth=3;fillColor=#fff2cc;strokeColor=#d6b656;" vertex="1" parent="1">
          <mxGeometry x="633" y="442" width="205" height="80" as="geometry" />
        </mxCell>
        <mxCell id="wcZ-rEzvD_bDUfHbQaW4-12" value="" style="endArrow=none;html=1;rounded=0;exitX=1;exitY=0.5;exitDx=0;exitDy=0;entryX=0;entryY=0.3333333333333333;entryDx=0;entryDy=0;entryPerimeter=0;fontSize=23;strokeWidth=3;fillColor=#fff2cc;strokeColor=#d6b656;" edge="1" parent="1" target="lv8XwaAhsmV5lhqvwmhc-8" source="wcZ-rEzvD_bDUfHbQaW4-11">
          <mxGeometry width="50" height="50" relative="1" as="geometry">
            <mxPoint x="849.67" y="528.84" as="sourcePoint" />
            <mxPoint x="1478" y="410" as="targetPoint" />
          </mxGeometry>
        </mxCell>
        <mxCell id="TWHVcWH0doDpn_9uBiK5-5" value="Login" style="ellipse;whiteSpace=wrap;html=1;fontSize=23;strokeWidth=3;fillColor=#fff2cc;strokeColor=#d6b656;" vertex="1" parent="1">
          <mxGeometry x="694" y="-113" width="200" height="80" as="geometry" />
        </mxCell>
        <mxCell id="TWHVcWH0doDpn_9uBiK5-6" value="" style="endArrow=none;html=1;rounded=0;entryX=0.03;entryY=0.338;entryDx=0;entryDy=0;fontSize=23;strokeWidth=3;exitX=1;exitY=0.3333333333333333;exitDx=0;exitDy=0;exitPerimeter=0;entryPerimeter=0;fillColor=#fff2cc;strokeColor=#d6b656;" edge="1" parent="1" source="lv8XwaAhsmV5lhqvwmhc-1" target="TWHVcWH0doDpn_9uBiK5-5">
          <mxGeometry width="50" height="50" relative="1" as="geometry">
            <mxPoint x="247" y="432" as="sourcePoint" />
            <mxPoint x="665" y="-188" as="targetPoint" />
          </mxGeometry>
        </mxCell>
        <mxCell id="TWHVcWH0doDpn_9uBiK5-7" value="" style="endArrow=none;html=1;rounded=0;exitX=0.98;exitY=0.688;exitDx=0;exitDy=0;fontSize=23;strokeWidth=3;entryX=0;entryY=0.3333333333333333;entryDx=0;entryDy=0;entryPerimeter=0;exitPerimeter=0;fillColor=#fff2cc;strokeColor=#d6b656;" edge="1" parent="1" source="TWHVcWH0doDpn_9uBiK5-5" target="lv8XwaAhsmV5lhqvwmhc-8">
          <mxGeometry width="50" height="50" relative="1" as="geometry">
            <mxPoint x="854" y="-197" as="sourcePoint" />
            <mxPoint x="1484" y="408" as="targetPoint" />
          </mxGeometry>
        </mxCell>
      </root>
    </mxGraphModel>
  </diagram>
</mxfile>
